<svg width="87" height="87" viewBox="0 0 87 87" fill="none" xmlns="http://www.w3.org/2000/svg">
<path d="M68.7917 27.7917C68.7917 25.9417 67.3425 23.105 65.1842 20.7925C63.2108 18.665 60.59 17 58 17" stroke="#3950FF" stroke-width="9" stroke-linecap="round" stroke-linejoin="round"/>
<path d="M81.5833 26.5833C81.5833 14.6508 71.9325 5 60 5" stroke="#3950FF" stroke-width="9" stroke-linecap="round" stroke-linejoin="round"/>
<path fill-rule="evenodd" clip-rule="evenodd" d="M19.2 77.2372H20.8C21.696 77.2372 22.848 77.8116 23.36 78.5135L28.16 84.8943C30.272 87.7019 33.728 87.7019 35.84 84.8943L40.64 78.5135C41.248 77.7159 42.208 77.2372 43.2 77.2372H44.8C57.6 77.2372 64 70.8564 64 58.0947V42.1425C64 29.3808 57.6 23 44.8 23H19.2C6.4 23 0 29.3808 0 42.1425V58.0947C0 74.0468 6.4 77.2372 19.2 77.2372ZM18.5 57C20.9853 57 23 54.9853 23 52.5C23 50.0147 20.9853 48 18.5 48C16.0147 48 14 50.0147 14 52.5C14 54.9853 16.0147 57 18.5 57ZM37 52.5C37 54.9853 34.9853 57 32.5 57C30.0147 57 28 54.9853 28 52.5C28 50.0147 30.0147 48 32.5 48C34.9853 48 37 50.0147 37 52.5ZM46.5 57C48.9853 57 51 54.9853 51 52.5C51 50.0147 48.9853 48 46.5 48C44.0147 48 42 50.0147 42 52.5C42 54.9853 44.0147 57 46.5 57Z" fill="#3950FF"/>
</svg>
