<svg width="227" height="116" viewBox="0 0 227 116" fill="none" xmlns="http://www.w3.org/2000/svg">
<path d="M208.792 27.7917C208.792 25.9417 207.343 23.105 205.184 20.7925C203.211 18.665 200.59 17 198 17" stroke="#3950FF" stroke-width="9" stroke-linecap="round" stroke-linejoin="round"/>
<path d="M221.583 26.5833C221.583 14.6508 211.933 5 200 5" stroke="#3950FF" stroke-width="9" stroke-linecap="round" stroke-linejoin="round"/>
<path d="M4.644 80.576L11.304 80.612C14.784 80.612 17.844 81.872 20.484 84.392C23.124 86.888 24.444 89.972 24.444 93.644C24.444 97.292 23.148 100.424 20.556 103.04C17.988 105.656 14.868 106.964 11.196 106.964H4.608C3.144 106.964 2.232 106.664 1.872 106.064C1.584 105.56 1.44 104.792 1.44 103.76V83.744C1.44 83.168 1.452 82.748 1.476 82.484C1.524 82.22 1.644 81.908 1.836 81.548C2.172 80.9 3.108 80.576 4.644 80.576ZM11.304 100.592C13.032 100.592 14.592 99.956 15.984 98.684C17.376 97.388 18.072 95.768 18.072 93.824C18.072 91.88 17.388 90.26 16.02 88.964C14.676 87.644 13.092 86.984 11.268 86.984H7.812V100.592H11.304ZM26.7877 91.196C26.7877 90.644 26.7997 90.236 26.8237 89.972C26.8717 89.684 26.9797 89.36 27.1477 89C27.4837 88.376 28.4197 88.064 29.9557 88.064C31.1077 88.064 31.9237 88.268 32.4037 88.676C32.8117 89.012 33.0277 89.528 33.0517 90.224C33.0757 90.464 33.0877 90.812 33.0877 91.268V103.868C33.0877 104.42 33.0637 104.84 33.0157 105.128C32.9917 105.392 32.8837 105.704 32.6917 106.064C32.3797 106.688 31.4557 107 29.9197 107C28.4077 107 27.4837 106.676 27.1477 106.028C26.9797 105.668 26.8717 105.356 26.8237 105.092C26.7997 104.828 26.7877 104.408 26.7877 103.832V91.196ZM32.6917 84.536C32.5237 84.872 32.2117 85.112 31.7557 85.256C31.2997 85.4 30.6877 85.472 29.9197 85.472C29.1757 85.472 28.5757 85.4 28.1197 85.256C27.6637 85.112 27.3397 84.86 27.1477 84.5C26.9797 84.14 26.8717 83.828 26.8237 83.564C26.7997 83.276 26.7877 82.856 26.7877 82.304C26.7877 81.752 26.7997 81.344 26.8237 81.08C26.8717 80.792 26.9797 80.48 27.1477 80.144C27.4837 79.496 28.4197 79.172 29.9557 79.172C31.4677 79.172 32.3797 79.496 32.6917 80.144C32.8837 80.504 32.9917 80.828 33.0157 81.116C33.0637 81.38 33.0877 81.788 33.0877 82.34C33.0877 82.892 33.0637 83.312 33.0157 83.6C32.9917 83.864 32.8837 84.176 32.6917 84.536ZM48.8514 88.244C49.3074 88.388 49.6794 88.64 49.9674 89C50.2794 89.336 50.4354 89.888 50.4354 90.656C50.4354 91.424 50.2074 92.264 49.7514 93.176C49.2954 94.088 48.6354 94.544 47.7714 94.544C47.3394 94.544 46.9194 94.448 46.5114 94.256C46.1274 94.064 45.6114 93.968 44.9634 93.968C44.3154 93.968 43.7034 94.196 43.1274 94.652C42.5754 95.108 42.2994 95.66 42.2994 96.308V103.868C42.2994 104.42 42.2754 104.84 42.2274 105.128C42.2034 105.392 42.0954 105.704 41.9034 106.064C41.5434 106.688 40.6074 107 39.0954 107C37.9434 107 37.1154 106.796 36.6114 106.388C36.2274 106.052 36.0114 105.536 35.9634 104.84C35.9634 104.6 35.9634 104.252 35.9634 103.796V91.16C35.9634 90.608 35.9754 90.2 35.9994 89.936C36.0474 89.648 36.1554 89.336 36.3234 89C36.6594 88.352 37.5954 88.028 39.1314 88.028C40.5714 88.028 41.4714 88.304 41.8314 88.856C42.0954 89.24 42.2274 89.636 42.2274 90.044C42.3474 89.876 42.5154 89.672 42.7314 89.432C42.9714 89.192 43.4634 88.868 44.2074 88.46C44.9514 88.052 45.5994 87.848 46.1514 87.848C46.7274 87.848 47.2074 87.884 47.5914 87.956C47.9754 88.004 48.3954 88.1 48.8514 88.244ZM69.6147 95.264C69.6147 96.728 69.2427 97.82 68.4987 98.54C67.7787 99.236 66.9747 99.584 66.0867 99.584H57.5547C57.5547 100.256 57.9507 100.82 58.7427 101.276C59.5347 101.732 60.3267 101.96 61.1187 101.96C62.5107 101.96 63.6027 101.816 64.3947 101.528L64.7907 101.384C65.3667 101.12 65.8467 100.988 66.2307 100.988C66.9987 100.988 67.6587 101.528 68.2107 102.608C68.5227 103.256 68.6787 103.808 68.6787 104.264C68.6787 106.4 66.1227 107.468 61.0107 107.468C59.2347 107.468 57.6507 107.168 56.2587 106.568C54.8907 105.944 53.8227 105.128 53.0547 104.12C51.5427 102.176 50.7867 100.004 50.7867 97.604C50.7867 94.58 51.7587 92.168 53.7027 90.368C55.6707 88.544 58.1187 87.632 61.0467 87.632C64.3827 87.632 66.8307 88.808 68.3907 91.16C69.2067 92.408 69.6147 93.776 69.6147 95.264ZM62.0187 96.308C62.9307 96.308 63.3867 95.924 63.3867 95.156C63.3867 94.604 63.1707 94.16 62.7387 93.824C62.3307 93.488 61.7307 93.32 60.9387 93.32C60.1707 93.32 59.4027 93.644 58.6347 94.292C57.8667 94.916 57.4827 95.588 57.4827 96.308H62.0187ZM77.9034 97.532C77.9034 98.54 78.2394 99.332 78.9114 99.908C79.5834 100.46 80.2914 100.736 81.0354 100.736C81.8034 100.736 82.5114 100.52 83.1594 100.088C83.8314 99.632 84.3714 99.404 84.7794 99.404C85.4994 99.404 86.3754 100.04 87.4074 101.312C87.9594 102.008 88.2354 102.632 88.2354 103.184C88.2354 104.096 87.5754 104.948 86.2554 105.74C84.8874 106.7 83.2074 107.18 81.2154 107.18C78.9834 107.18 76.8354 106.376 74.7714 104.768C73.7874 104 72.9834 102.98 72.3594 101.708C71.7354 100.412 71.4234 98.996 71.4234 97.46C71.4234 95.9 71.7354 94.496 72.3594 93.248C72.9834 91.976 73.7874 90.956 74.7714 90.188C76.7634 88.604 78.8874 87.812 81.1434 87.812C82.0554 87.812 82.9434 87.944 83.8074 88.208C84.6714 88.448 85.3074 88.688 85.7154 88.928L86.2914 89.288C86.7234 89.576 87.0594 89.804 87.2994 89.972C87.9234 90.452 88.2354 91.004 88.2354 91.628C88.2354 92.228 87.9834 92.912 87.4794 93.68C86.6154 95 85.7874 95.66 84.9954 95.66C84.5394 95.66 83.8914 95.396 83.0514 94.868C82.6194 94.46 81.9954 94.256 81.1794 94.256C80.3874 94.256 79.6434 94.544 78.9474 95.12C78.2514 95.696 77.9034 96.5 77.9034 97.532ZM101.226 94.4L98.8855 94.256V99.224C98.8855 99.872 98.9815 100.34 99.1735 100.628C99.3895 100.916 99.7735 101.06 100.326 101.06C100.902 101.06 101.334 101.084 101.622 101.132C101.934 101.156 102.258 101.264 102.594 101.456C103.146 101.768 103.422 102.572 103.422 103.868C103.422 105.38 103.086 106.304 102.414 106.64C102.054 106.808 101.73 106.916 101.442 106.964C101.178 106.988 100.782 107 100.254 107C97.7575 107 95.8615 106.436 94.5655 105.308C93.2695 104.18 92.6215 102.272 92.6215 99.584V94.256C92.1655 94.328 91.6735 94.364 91.1455 94.364C90.6175 94.364 90.1735 94.16 89.8135 93.752C89.4775 93.344 89.3095 92.648 89.3095 91.664C89.3095 90.68 89.3695 89.972 89.4895 89.54C89.6095 89.084 89.7775 88.76 89.9935 88.568C90.3775 88.256 90.8575 88.1 91.4335 88.1L92.6215 88.244V84.536C92.6215 83.984 92.6335 83.576 92.6575 83.312C92.7055 83.048 92.8255 82.76 93.0175 82.448C93.3295 81.848 94.2535 81.548 95.7895 81.548C97.4215 81.548 98.3935 81.992 98.7055 82.88C98.8255 83.264 98.8855 83.876 98.8855 84.716V88.244C99.9415 88.148 100.734 88.1 101.262 88.1C101.814 88.1 102.222 88.124 102.486 88.172C102.774 88.196 103.098 88.304 103.458 88.496C104.082 88.808 104.394 89.732 104.394 91.268C104.394 92.78 104.07 93.704 103.422 94.04C103.062 94.208 102.738 94.316 102.45 94.364C102.186 94.388 101.778 94.4 101.226 94.4ZM168.608 91.196C168.608 90.644 168.62 90.236 168.644 89.972C168.692 89.684 168.8 89.36 168.968 89C169.304 88.376 170.24 88.064 171.776 88.064C172.928 88.064 173.744 88.268 174.224 88.676C174.632 89.012 174.848 89.528 174.872 90.224C174.896 90.464 174.908 90.812 174.908 91.268V103.868C174.908 104.42 174.884 104.84 174.836 105.128C174.812 105.392 174.704 105.704 174.512 106.064C174.2 106.688 173.276 107 171.74 107C170.228 107 169.304 106.676 168.968 106.028C168.8 105.668 168.692 105.356 168.644 105.092C168.62 104.828 168.608 104.408 168.608 103.832V91.196ZM174.512 84.536C174.344 84.872 174.032 85.112 173.576 85.256C173.12 85.4 172.508 85.472 171.74 85.472C170.996 85.472 170.396 85.4 169.94 85.256C169.484 85.112 169.16 84.86 168.968 84.5C168.8 84.14 168.692 83.828 168.644 83.564C168.62 83.276 168.608 82.856 168.608 82.304C168.608 81.752 168.62 81.344 168.644 81.08C168.692 80.792 168.8 80.48 168.968 80.144C169.304 79.496 170.24 79.172 171.776 79.172C173.288 79.172 174.2 79.496 174.512 80.144C174.704 80.504 174.812 80.828 174.836 81.116C174.884 81.38 174.908 81.788 174.908 82.34C174.908 82.892 174.884 83.312 174.836 83.6C174.812 83.864 174.704 84.176 174.512 84.536Z" fill="#3950FF"/>
<path d="M121.609 82.484L131.329 102.572C131.737 103.388 131.941 104 131.941 104.408C131.941 105.272 131.245 106.052 129.853 106.748C129.037 107.156 128.389 107.36 127.909 107.36C127.453 107.36 127.069 107.252 126.757 107.036C126.469 106.82 126.253 106.592 126.109 106.352C125.989 106.112 125.809 105.752 125.569 105.272L123.697 101.384H113.725L111.853 105.272C111.613 105.752 111.421 106.1 111.277 106.316C111.157 106.532 110.941 106.76 110.629 107C110.341 107.216 109.957 107.324 109.477 107.324C109.021 107.324 108.385 107.12 107.569 106.712C106.177 106.04 105.481 105.272 105.481 104.408C105.481 104 105.685 103.388 106.093 102.572L115.813 82.448C116.077 81.896 116.473 81.452 117.001 81.116C117.553 80.78 118.129 80.612 118.729 80.612C120.025 80.612 120.985 81.236 121.609 82.484ZM118.693 91.124L116.317 96.056H121.105L118.693 91.124ZM133.525 105.308C133.069 105.02 132.841 104.564 132.841 103.94C132.841 103.316 133.297 102.368 134.209 101.096C134.473 100.688 134.893 100.484 135.469 100.484C136.069 100.484 136.873 100.784 137.881 101.384C138.889 101.96 139.801 102.248 140.617 102.248C142.081 102.248 142.813 101.96 142.813 101.384C142.813 100.928 142.009 100.592 140.401 100.376C138.889 100.16 137.389 99.596 135.901 98.684C135.205 98.252 134.629 97.58 134.173 96.668C133.717 95.732 133.489 94.628 133.489 93.356C133.489 89.564 136.093 87.668 141.301 87.668C143.005 87.668 144.757 88.076 146.557 88.892C147.397 89.276 147.817 89.756 147.817 90.332C147.817 90.908 147.553 91.616 147.025 92.456C146.497 93.296 145.957 93.716 145.405 93.716C145.117 93.716 144.577 93.536 143.785 93.176C143.017 92.816 142.177 92.636 141.265 92.636C139.849 92.636 139.141 92.9 139.141 93.428C139.141 94.148 139.957 94.616 141.589 94.832C143.173 95 144.709 95.456 146.197 96.2C146.893 96.536 147.469 97.124 147.925 97.964C148.405 98.78 148.645 99.812 148.645 101.06C148.645 102.308 148.405 103.376 147.925 104.264C147.469 105.128 146.821 105.776 145.981 106.208C144.445 106.952 142.513 107.324 140.185 107.324C137.881 107.324 135.661 106.652 133.525 105.308ZM151.139 105.308C150.683 105.02 150.455 104.564 150.455 103.94C150.455 103.316 150.911 102.368 151.823 101.096C152.087 100.688 152.507 100.484 153.083 100.484C153.683 100.484 154.487 100.784 155.495 101.384C156.503 101.96 157.415 102.248 158.231 102.248C159.695 102.248 160.427 101.96 160.427 101.384C160.427 100.928 159.623 100.592 158.015 100.376C156.503 100.16 155.003 99.596 153.515 98.684C152.819 98.252 152.243 97.58 151.787 96.668C151.331 95.732 151.103 94.628 151.103 93.356C151.103 89.564 153.707 87.668 158.915 87.668C160.619 87.668 162.371 88.076 164.171 88.892C165.011 89.276 165.431 89.756 165.431 90.332C165.431 90.908 165.167 91.616 164.639 92.456C164.111 93.296 163.571 93.716 163.019 93.716C162.731 93.716 162.191 93.536 161.399 93.176C160.631 92.816 159.791 92.636 158.879 92.636C157.463 92.636 156.755 92.9 156.755 93.428C156.755 94.148 157.571 94.616 159.203 94.832C160.787 95 162.323 95.456 163.811 96.2C164.507 96.536 165.083 97.124 165.539 97.964C166.019 98.78 166.259 99.812 166.259 101.06C166.259 102.308 166.019 103.376 165.539 104.264C165.083 105.128 164.435 105.776 163.595 106.208C162.059 106.952 160.127 107.324 157.799 107.324C155.495 107.324 153.275 106.652 151.139 105.308ZM177.928 105.308C177.472 105.02 177.244 104.564 177.244 103.94C177.244 103.316 177.7 102.368 178.612 101.096C178.876 100.688 179.296 100.484 179.872 100.484C180.472 100.484 181.276 100.784 182.284 101.384C183.292 101.96 184.204 102.248 185.02 102.248C186.484 102.248 187.216 101.96 187.216 101.384C187.216 100.928 186.412 100.592 184.804 100.376C183.292 100.16 181.792 99.596 180.304 98.684C179.608 98.252 179.032 97.58 178.576 96.668C178.12 95.732 177.892 94.628 177.892 93.356C177.892 89.564 180.496 87.668 185.704 87.668C187.408 87.668 189.16 88.076 190.96 88.892C191.8 89.276 192.22 89.756 192.22 90.332C192.22 90.908 191.956 91.616 191.428 92.456C190.9 93.296 190.36 93.716 189.808 93.716C189.52 93.716 188.98 93.536 188.188 93.176C187.42 92.816 186.58 92.636 185.668 92.636C184.252 92.636 183.544 92.9 183.544 93.428C183.544 94.148 184.36 94.616 185.992 94.832C187.576 95 189.112 95.456 190.6 96.2C191.296 96.536 191.872 97.124 192.328 97.964C192.808 98.78 193.048 99.812 193.048 101.06C193.048 102.308 192.808 103.376 192.328 104.264C191.872 105.128 191.224 105.776 190.384 106.208C188.848 106.952 186.916 107.324 184.588 107.324C182.284 107.324 180.064 106.652 177.928 105.308ZM205.851 94.4L203.511 94.256V99.224C203.511 99.872 203.607 100.34 203.799 100.628C204.015 100.916 204.399 101.06 204.951 101.06C205.527 101.06 205.959 101.084 206.247 101.132C206.559 101.156 206.883 101.264 207.219 101.456C207.771 101.768 208.047 102.572 208.047 103.868C208.047 105.38 207.711 106.304 207.039 106.64C206.679 106.808 206.355 106.916 206.067 106.964C205.803 106.988 205.407 107 204.879 107C202.383 107 200.487 106.436 199.191 105.308C197.895 104.18 197.247 102.272 197.247 99.584V94.256C196.791 94.328 196.299 94.364 195.771 94.364C195.243 94.364 194.799 94.16 194.439 93.752C194.103 93.344 193.935 92.648 193.935 91.664C193.935 90.68 193.995 89.972 194.115 89.54C194.235 89.084 194.403 88.76 194.619 88.568C195.003 88.256 195.483 88.1 196.059 88.1L197.247 88.244V84.536C197.247 83.984 197.259 83.576 197.283 83.312C197.331 83.048 197.451 82.76 197.643 82.448C197.955 81.848 198.879 81.548 200.415 81.548C202.047 81.548 203.019 81.992 203.331 82.88C203.451 83.264 203.511 83.876 203.511 84.716V88.244C204.567 88.148 205.359 88.1 205.887 88.1C206.439 88.1 206.847 88.124 207.111 88.172C207.399 88.196 207.723 88.304 208.083 88.496C208.707 88.808 209.019 89.732 209.019 91.268C209.019 92.78 208.695 93.704 208.047 94.04C207.687 94.208 207.363 94.316 207.075 94.364C206.811 94.388 206.403 94.4 205.851 94.4Z" fill="#3A3F45"/>
<path fill-rule="evenodd" clip-rule="evenodd" d="M159.2 77.2372H160.8C161.696 77.2372 162.848 77.8116 163.36 78.5135L168.16 84.8943C170.272 87.7019 173.728 87.7019 175.84 84.8943L180.64 78.5135C181.248 77.7159 182.208 77.2372 183.2 77.2372H184.8C197.6 77.2372 204 70.8564 204 58.0947V42.1425C204 29.3808 197.6 23 184.8 23H159.2C146.4 23 140 29.3808 140 42.1425V58.0947C140 74.0468 146.4 77.2372 159.2 77.2372ZM158.5 57C160.985 57 163 54.9853 163 52.5C163 50.0147 160.985 48 158.5 48C156.015 48 154 50.0147 154 52.5C154 54.9853 156.015 57 158.5 57ZM177 52.5C177 54.9853 174.985 57 172.5 57C170.015 57 168 54.9853 168 52.5C168 50.0147 170.015 48 172.5 48C174.985 48 177 50.0147 177 52.5ZM186.5 57C188.985 57 191 54.9853 191 52.5C191 50.0147 188.985 48 186.5 48C184.015 48 182 50.0147 182 52.5C182 54.9853 184.015 57 186.5 57Z" fill="#3950FF"/>
</svg>
