<svg width="298" height="87" viewBox="0 0 298 87" fill="none" xmlns="http://www.w3.org/2000/svg">
<path d="M279.792 27.7917C279.792 25.9417 278.343 23.105 276.184 20.7925C274.211 18.665 271.59 17 269 17" stroke="white" stroke-width="9" stroke-linecap="round" stroke-linejoin="round"/>
<path d="M292.583 26.5833C292.583 14.6508 282.933 5 271 5" stroke="white" stroke-width="9" stroke-linecap="round" stroke-linejoin="round"/>
<path d="M4.644 30.576L11.304 30.612C14.784 30.612 17.844 31.872 20.484 34.392C23.124 36.888 24.444 39.972 24.444 43.644C24.444 47.292 23.148 50.424 20.556 53.04C17.988 55.656 14.868 56.964 11.196 56.964H4.608C3.144 56.964 2.232 56.664 1.872 56.064C1.584 55.56 1.44 54.792 1.44 53.76V33.744C1.44 33.168 1.452 32.748 1.476 32.484C1.524 32.22 1.644 31.908 1.836 31.548C2.172 30.9 3.108 30.576 4.644 30.576ZM11.304 50.592C13.032 50.592 14.592 49.956 15.984 48.684C17.376 47.388 18.072 45.768 18.072 43.824C18.072 41.88 17.388 40.26 16.02 38.964C14.676 37.644 13.092 36.984 11.268 36.984H7.812V50.592H11.304ZM26.7877 41.196C26.7877 40.644 26.7997 40.236 26.8237 39.972C26.8717 39.684 26.9797 39.36 27.1477 39C27.4837 38.376 28.4197 38.064 29.9557 38.064C31.1077 38.064 31.9237 38.268 32.4037 38.676C32.8117 39.012 33.0277 39.528 33.0517 40.224C33.0757 40.464 33.0877 40.812 33.0877 41.268V53.868C33.0877 54.42 33.0637 54.84 33.0157 55.128C32.9917 55.392 32.8837 55.704 32.6917 56.064C32.3797 56.688 31.4557 57 29.9197 57C28.4077 57 27.4837 56.676 27.1477 56.028C26.9797 55.668 26.8717 55.356 26.8237 55.092C26.7997 54.828 26.7877 54.408 26.7877 53.832V41.196ZM32.6917 34.536C32.5237 34.872 32.2117 35.112 31.7557 35.256C31.2997 35.4 30.6877 35.472 29.9197 35.472C29.1757 35.472 28.5757 35.4 28.1197 35.256C27.6637 35.112 27.3397 34.86 27.1477 34.5C26.9797 34.14 26.8717 33.828 26.8237 33.564C26.7997 33.276 26.7877 32.856 26.7877 32.304C26.7877 31.752 26.7997 31.344 26.8237 31.08C26.8717 30.792 26.9797 30.48 27.1477 30.144C27.4837 29.496 28.4197 29.172 29.9557 29.172C31.4677 29.172 32.3797 29.496 32.6917 30.144C32.8837 30.504 32.9917 30.828 33.0157 31.116C33.0637 31.38 33.0877 31.788 33.0877 32.34C33.0877 32.892 33.0637 33.312 33.0157 33.6C32.9917 33.864 32.8837 34.176 32.6917 34.536ZM48.8514 38.244C49.3074 38.388 49.6794 38.64 49.9674 39C50.2794 39.336 50.4354 39.888 50.4354 40.656C50.4354 41.424 50.2074 42.264 49.7514 43.176C49.2954 44.088 48.6354 44.544 47.7714 44.544C47.3394 44.544 46.9194 44.448 46.5114 44.256C46.1274 44.064 45.6114 43.968 44.9634 43.968C44.3154 43.968 43.7034 44.196 43.1274 44.652C42.5754 45.108 42.2994 45.66 42.2994 46.308V53.868C42.2994 54.42 42.2754 54.84 42.2274 55.128C42.2034 55.392 42.0954 55.704 41.9034 56.064C41.5434 56.688 40.6074 57 39.0954 57C37.9434 57 37.1154 56.796 36.6114 56.388C36.2274 56.052 36.0114 55.536 35.9634 54.84C35.9634 54.6 35.9634 54.252 35.9634 53.796V41.16C35.9634 40.608 35.9754 40.2 35.9994 39.936C36.0474 39.648 36.1554 39.336 36.3234 39C36.6594 38.352 37.5954 38.028 39.1314 38.028C40.5714 38.028 41.4714 38.304 41.8314 38.856C42.0954 39.24 42.2274 39.636 42.2274 40.044C42.3474 39.876 42.5154 39.672 42.7314 39.432C42.9714 39.192 43.4634 38.868 44.2074 38.46C44.9514 38.052 45.5994 37.848 46.1514 37.848C46.7274 37.848 47.2074 37.884 47.5914 37.956C47.9754 38.004 48.3954 38.1 48.8514 38.244ZM69.6147 45.264C69.6147 46.728 69.2427 47.82 68.4987 48.54C67.7787 49.236 66.9747 49.584 66.0867 49.584H57.5547C57.5547 50.256 57.9507 50.82 58.7427 51.276C59.5347 51.732 60.3267 51.96 61.1187 51.96C62.5107 51.96 63.6027 51.816 64.3947 51.528L64.7907 51.384C65.3667 51.12 65.8467 50.988 66.2307 50.988C66.9987 50.988 67.6587 51.528 68.2107 52.608C68.5227 53.256 68.6787 53.808 68.6787 54.264C68.6787 56.4 66.1227 57.468 61.0107 57.468C59.2347 57.468 57.6507 57.168 56.2587 56.568C54.8907 55.944 53.8227 55.128 53.0547 54.12C51.5427 52.176 50.7867 50.004 50.7867 47.604C50.7867 44.58 51.7587 42.168 53.7027 40.368C55.6707 38.544 58.1187 37.632 61.0467 37.632C64.3827 37.632 66.8307 38.808 68.3907 41.16C69.2067 42.408 69.6147 43.776 69.6147 45.264ZM62.0187 46.308C62.9307 46.308 63.3867 45.924 63.3867 45.156C63.3867 44.604 63.1707 44.16 62.7387 43.824C62.3307 43.488 61.7307 43.32 60.9387 43.32C60.1707 43.32 59.4027 43.644 58.6347 44.292C57.8667 44.916 57.4827 45.588 57.4827 46.308H62.0187ZM77.9034 47.532C77.9034 48.54 78.2394 49.332 78.9114 49.908C79.5834 50.46 80.2914 50.736 81.0354 50.736C81.8034 50.736 82.5114 50.52 83.1594 50.088C83.8314 49.632 84.3714 49.404 84.7794 49.404C85.4994 49.404 86.3754 50.04 87.4074 51.312C87.9594 52.008 88.2354 52.632 88.2354 53.184C88.2354 54.096 87.5754 54.948 86.2554 55.74C84.8874 56.7 83.2074 57.18 81.2154 57.18C78.9834 57.18 76.8354 56.376 74.7714 54.768C73.7874 54 72.9834 52.98 72.3594 51.708C71.7354 50.412 71.4234 48.996 71.4234 47.46C71.4234 45.9 71.7354 44.496 72.3594 43.248C72.9834 41.976 73.7874 40.956 74.7714 40.188C76.7634 38.604 78.8874 37.812 81.1434 37.812C82.0554 37.812 82.9434 37.944 83.8074 38.208C84.6714 38.448 85.3074 38.688 85.7154 38.928L86.2914 39.288C86.7234 39.576 87.0594 39.804 87.2994 39.972C87.9234 40.452 88.2354 41.004 88.2354 41.628C88.2354 42.228 87.9834 42.912 87.4794 43.68C86.6154 45 85.7874 45.66 84.9954 45.66C84.5394 45.66 83.8914 45.396 83.0514 44.868C82.6194 44.46 81.9954 44.256 81.1794 44.256C80.3874 44.256 79.6434 44.544 78.9474 45.12C78.2514 45.696 77.9034 46.5 77.9034 47.532ZM101.226 44.4L98.8855 44.256V49.224C98.8855 49.872 98.9815 50.34 99.1735 50.628C99.3895 50.916 99.7735 51.06 100.326 51.06C100.902 51.06 101.334 51.084 101.622 51.132C101.934 51.156 102.258 51.264 102.594 51.456C103.146 51.768 103.422 52.572 103.422 53.868C103.422 55.38 103.086 56.304 102.414 56.64C102.054 56.808 101.73 56.916 101.442 56.964C101.178 56.988 100.782 57 100.254 57C97.7575 57 95.8615 56.436 94.5655 55.308C93.2695 54.18 92.6215 52.272 92.6215 49.584V44.256C92.1655 44.328 91.6735 44.364 91.1455 44.364C90.6175 44.364 90.1735 44.16 89.8135 43.752C89.4775 43.344 89.3095 42.648 89.3095 41.664C89.3095 40.68 89.3695 39.972 89.4895 39.54C89.6095 39.084 89.7775 38.76 89.9935 38.568C90.3775 38.256 90.8575 38.1 91.4335 38.1L92.6215 38.244V34.536C92.6215 33.984 92.6335 33.576 92.6575 33.312C92.7055 33.048 92.8255 32.76 93.0175 32.448C93.3295 31.848 94.2535 31.548 95.7895 31.548C97.4215 31.548 98.3935 31.992 98.7055 32.88C98.8255 33.264 98.8855 33.876 98.8855 34.716V38.244C99.9415 38.148 100.734 38.1 101.262 38.1C101.814 38.1 102.222 38.124 102.486 38.172C102.774 38.196 103.098 38.304 103.458 38.496C104.082 38.808 104.394 39.732 104.394 41.268C104.394 42.78 104.07 43.704 103.422 44.04C103.062 44.208 102.738 44.316 102.45 44.364C102.186 44.388 101.778 44.4 101.226 44.4ZM168.608 41.196C168.608 40.644 168.62 40.236 168.644 39.972C168.692 39.684 168.8 39.36 168.968 39C169.304 38.376 170.24 38.064 171.776 38.064C172.928 38.064 173.744 38.268 174.224 38.676C174.632 39.012 174.848 39.528 174.872 40.224C174.896 40.464 174.908 40.812 174.908 41.268V53.868C174.908 54.42 174.884 54.84 174.836 55.128C174.812 55.392 174.704 55.704 174.512 56.064C174.2 56.688 173.276 57 171.74 57C170.228 57 169.304 56.676 168.968 56.028C168.8 55.668 168.692 55.356 168.644 55.092C168.62 54.828 168.608 54.408 168.608 53.832V41.196ZM174.512 34.536C174.344 34.872 174.032 35.112 173.576 35.256C173.12 35.4 172.508 35.472 171.74 35.472C170.996 35.472 170.396 35.4 169.94 35.256C169.484 35.112 169.16 34.86 168.968 34.5C168.8 34.14 168.692 33.828 168.644 33.564C168.62 33.276 168.608 32.856 168.608 32.304C168.608 31.752 168.62 31.344 168.644 31.08C168.692 30.792 168.8 30.48 168.968 30.144C169.304 29.496 170.24 29.172 171.776 29.172C173.288 29.172 174.2 29.496 174.512 30.144C174.704 30.504 174.812 30.828 174.836 31.116C174.884 31.38 174.908 31.788 174.908 32.34C174.908 32.892 174.884 33.312 174.836 33.6C174.812 33.864 174.704 34.176 174.512 34.536Z" fill="white"/>
<path d="M121.609 32.484L131.329 52.572C131.737 53.388 131.941 54 131.941 54.408C131.941 55.272 131.245 56.052 129.853 56.748C129.037 57.156 128.389 57.36 127.909 57.36C127.453 57.36 127.069 57.252 126.757 57.036C126.469 56.82 126.253 56.592 126.109 56.352C125.989 56.112 125.809 55.752 125.569 55.272L123.697 51.384H113.725L111.853 55.272C111.613 55.752 111.421 56.1 111.277 56.316C111.157 56.532 110.941 56.76 110.629 57C110.341 57.216 109.957 57.324 109.477 57.324C109.021 57.324 108.385 57.12 107.569 56.712C106.177 56.04 105.481 55.272 105.481 54.408C105.481 54 105.685 53.388 106.093 52.572L115.813 32.448C116.077 31.896 116.473 31.452 117.001 31.116C117.553 30.78 118.129 30.612 118.729 30.612C120.025 30.612 120.985 31.236 121.609 32.484ZM118.693 41.124L116.317 46.056H121.105L118.693 41.124ZM133.525 55.308C133.069 55.02 132.841 54.564 132.841 53.94C132.841 53.316 133.297 52.368 134.209 51.096C134.473 50.688 134.893 50.484 135.469 50.484C136.069 50.484 136.873 50.784 137.881 51.384C138.889 51.96 139.801 52.248 140.617 52.248C142.081 52.248 142.813 51.96 142.813 51.384C142.813 50.928 142.009 50.592 140.401 50.376C138.889 50.16 137.389 49.596 135.901 48.684C135.205 48.252 134.629 47.58 134.173 46.668C133.717 45.732 133.489 44.628 133.489 43.356C133.489 39.564 136.093 37.668 141.301 37.668C143.005 37.668 144.757 38.076 146.557 38.892C147.397 39.276 147.817 39.756 147.817 40.332C147.817 40.908 147.553 41.616 147.025 42.456C146.497 43.296 145.957 43.716 145.405 43.716C145.117 43.716 144.577 43.536 143.785 43.176C143.017 42.816 142.177 42.636 141.265 42.636C139.849 42.636 139.141 42.9 139.141 43.428C139.141 44.148 139.957 44.616 141.589 44.832C143.173 45 144.709 45.456 146.197 46.2C146.893 46.536 147.469 47.124 147.925 47.964C148.405 48.78 148.645 49.812 148.645 51.06C148.645 52.308 148.405 53.376 147.925 54.264C147.469 55.128 146.821 55.776 145.981 56.208C144.445 56.952 142.513 57.324 140.185 57.324C137.881 57.324 135.661 56.652 133.525 55.308ZM151.139 55.308C150.683 55.02 150.455 54.564 150.455 53.94C150.455 53.316 150.911 52.368 151.823 51.096C152.087 50.688 152.507 50.484 153.083 50.484C153.683 50.484 154.487 50.784 155.495 51.384C156.503 51.96 157.415 52.248 158.231 52.248C159.695 52.248 160.427 51.96 160.427 51.384C160.427 50.928 159.623 50.592 158.015 50.376C156.503 50.16 155.003 49.596 153.515 48.684C152.819 48.252 152.243 47.58 151.787 46.668C151.331 45.732 151.103 44.628 151.103 43.356C151.103 39.564 153.707 37.668 158.915 37.668C160.619 37.668 162.371 38.076 164.171 38.892C165.011 39.276 165.431 39.756 165.431 40.332C165.431 40.908 165.167 41.616 164.639 42.456C164.111 43.296 163.571 43.716 163.019 43.716C162.731 43.716 162.191 43.536 161.399 43.176C160.631 42.816 159.791 42.636 158.879 42.636C157.463 42.636 156.755 42.9 156.755 43.428C156.755 44.148 157.571 44.616 159.203 44.832C160.787 45 162.323 45.456 163.811 46.2C164.507 46.536 165.083 47.124 165.539 47.964C166.019 48.78 166.259 49.812 166.259 51.06C166.259 52.308 166.019 53.376 165.539 54.264C165.083 55.128 164.435 55.776 163.595 56.208C162.059 56.952 160.127 57.324 157.799 57.324C155.495 57.324 153.275 56.652 151.139 55.308ZM177.928 55.308C177.472 55.02 177.244 54.564 177.244 53.94C177.244 53.316 177.7 52.368 178.612 51.096C178.876 50.688 179.296 50.484 179.872 50.484C180.472 50.484 181.276 50.784 182.284 51.384C183.292 51.96 184.204 52.248 185.02 52.248C186.484 52.248 187.216 51.96 187.216 51.384C187.216 50.928 186.412 50.592 184.804 50.376C183.292 50.16 181.792 49.596 180.304 48.684C179.608 48.252 179.032 47.58 178.576 46.668C178.12 45.732 177.892 44.628 177.892 43.356C177.892 39.564 180.496 37.668 185.704 37.668C187.408 37.668 189.16 38.076 190.96 38.892C191.8 39.276 192.22 39.756 192.22 40.332C192.22 40.908 191.956 41.616 191.428 42.456C190.9 43.296 190.36 43.716 189.808 43.716C189.52 43.716 188.98 43.536 188.188 43.176C187.42 42.816 186.58 42.636 185.668 42.636C184.252 42.636 183.544 42.9 183.544 43.428C183.544 44.148 184.36 44.616 185.992 44.832C187.576 45 189.112 45.456 190.6 46.2C191.296 46.536 191.872 47.124 192.328 47.964C192.808 48.78 193.048 49.812 193.048 51.06C193.048 52.308 192.808 53.376 192.328 54.264C191.872 55.128 191.224 55.776 190.384 56.208C188.848 56.952 186.916 57.324 184.588 57.324C182.284 57.324 180.064 56.652 177.928 55.308ZM205.851 44.4L203.511 44.256V49.224C203.511 49.872 203.607 50.34 203.799 50.628C204.015 50.916 204.399 51.06 204.951 51.06C205.527 51.06 205.959 51.084 206.247 51.132C206.559 51.156 206.883 51.264 207.219 51.456C207.771 51.768 208.047 52.572 208.047 53.868C208.047 55.38 207.711 56.304 207.039 56.64C206.679 56.808 206.355 56.916 206.067 56.964C205.803 56.988 205.407 57 204.879 57C202.383 57 200.487 56.436 199.191 55.308C197.895 54.18 197.247 52.272 197.247 49.584V44.256C196.791 44.328 196.299 44.364 195.771 44.364C195.243 44.364 194.799 44.16 194.439 43.752C194.103 43.344 193.935 42.648 193.935 41.664C193.935 40.68 193.995 39.972 194.115 39.54C194.235 39.084 194.403 38.76 194.619 38.568C195.003 38.256 195.483 38.1 196.059 38.1L197.247 38.244V34.536C197.247 33.984 197.259 33.576 197.283 33.312C197.331 33.048 197.451 32.76 197.643 32.448C197.955 31.848 198.879 31.548 200.415 31.548C202.047 31.548 203.019 31.992 203.331 32.88C203.451 33.264 203.511 33.876 203.511 34.716V38.244C204.567 38.148 205.359 38.1 205.887 38.1C206.439 38.1 206.847 38.124 207.111 38.172C207.399 38.196 207.723 38.304 208.083 38.496C208.707 38.808 209.019 39.732 209.019 41.268C209.019 42.78 208.695 43.704 208.047 44.04C207.687 44.208 207.363 44.316 207.075 44.364C206.811 44.388 206.403 44.4 205.851 44.4Z" fill="#3A3F45"/>
<path fill-rule="evenodd" clip-rule="evenodd" d="M230.2 77.2372H231.8C232.696 77.2372 233.848 77.8116 234.36 78.5135L239.16 84.8943C241.272 87.7019 244.728 87.7019 246.84 84.8943L251.64 78.5135C252.248 77.7159 253.208 77.2372 254.2 77.2372H255.8C268.6 77.2372 275 70.8564 275 58.0947V42.1425C275 29.3808 268.6 23 255.8 23H230.2C217.4 23 211 29.3808 211 42.1425V58.0947C211 74.0468 217.4 77.2372 230.2 77.2372ZM229.5 57C231.985 57 234 54.9853 234 52.5C234 50.0147 231.985 48 229.5 48C227.015 48 225 50.0147 225 52.5C225 54.9853 227.015 57 229.5 57ZM248 52.5C248 54.9853 245.985 57 243.5 57C241.015 57 239 54.9853 239 52.5C239 50.0147 241.015 48 243.5 48C245.985 48 248 50.0147 248 52.5ZM257.5 57C259.985 57 262 54.9853 262 52.5C262 50.0147 259.985 48 257.5 48C255.015 48 253 50.0147 253 52.5C253 54.9853 255.015 57 257.5 57Z" fill="white"/>
</svg>
