<svg width="209" height="29" viewBox="0 0 209 29" fill="none" xmlns="http://www.w3.org/2000/svg">
<path d="M3.644 1.576L10.304 1.612C13.784 1.612 16.844 2.872 19.484 5.392C22.124 7.888 23.444 10.972 23.444 14.644C23.444 18.292 22.148 21.424 19.556 24.04C16.988 26.656 13.868 27.964 10.196 27.964H3.608C2.144 27.964 1.232 27.664 0.872 27.064C0.584 26.56 0.44 25.792 0.44 24.76V4.744C0.44 4.168 0.452 3.748 0.476 3.484C0.524 3.22 0.644 2.908 0.836 2.548C1.172 1.9 2.108 1.576 3.644 1.576ZM10.304 21.592C12.032 21.592 13.592 20.956 14.984 19.684C16.376 18.388 17.072 16.768 17.072 14.824C17.072 12.88 16.388 11.26 15.02 9.964C13.676 8.644 12.092 7.984 10.268 7.984H6.812V21.592H10.304ZM25.7877 12.196C25.7877 11.644 25.7997 11.236 25.8237 10.972C25.8717 10.684 25.9797 10.36 26.1477 10C26.4837 9.376 27.4197 9.064 28.9557 9.064C30.1077 9.064 30.9237 9.268 31.4037 9.676C31.8117 10.012 32.0277 10.528 32.0517 11.224C32.0757 11.464 32.0877 11.812 32.0877 12.268V24.868C32.0877 25.42 32.0637 25.84 32.0157 26.128C31.9917 26.392 31.8837 26.704 31.6917 27.064C31.3797 27.688 30.4557 28 28.9197 28C27.4077 28 26.4837 27.676 26.1477 27.028C25.9797 26.668 25.8717 26.356 25.8237 26.092C25.7997 25.828 25.7877 25.408 25.7877 24.832V12.196ZM31.6917 5.536C31.5237 5.872 31.2117 6.112 30.7557 6.256C30.2997 6.4 29.6877 6.472 28.9197 6.472C28.1757 6.472 27.5757 6.4 27.1197 6.256C26.6637 6.112 26.3397 5.86 26.1477 5.5C25.9797 5.14 25.8717 4.828 25.8237 4.564C25.7997 4.276 25.7877 3.856 25.7877 3.304C25.7877 2.752 25.7997 2.344 25.8237 2.08C25.8717 1.792 25.9797 1.48 26.1477 1.144C26.4837 0.495998 27.4197 0.171998 28.9557 0.171998C30.4677 0.171998 31.3797 0.495998 31.6917 1.144C31.8837 1.504 31.9917 1.828 32.0157 2.116C32.0637 2.38 32.0877 2.788 32.0877 3.34C32.0877 3.892 32.0637 4.312 32.0157 4.6C31.9917 4.864 31.8837 5.176 31.6917 5.536ZM47.8514 9.244C48.3074 9.388 48.6794 9.64 48.9674 10C49.2794 10.336 49.4354 10.888 49.4354 11.656C49.4354 12.424 49.2074 13.264 48.7514 14.176C48.2954 15.088 47.6354 15.544 46.7714 15.544C46.3394 15.544 45.9194 15.448 45.5114 15.256C45.1274 15.064 44.6114 14.968 43.9634 14.968C43.3154 14.968 42.7034 15.196 42.1274 15.652C41.5754 16.108 41.2994 16.66 41.2994 17.308V24.868C41.2994 25.42 41.2754 25.84 41.2274 26.128C41.2034 26.392 41.0954 26.704 40.9034 27.064C40.5434 27.688 39.6074 28 38.0954 28C36.9434 28 36.1154 27.796 35.6114 27.388C35.2274 27.052 35.0114 26.536 34.9634 25.84C34.9634 25.6 34.9634 25.252 34.9634 24.796V12.16C34.9634 11.608 34.9754 11.2 34.9994 10.936C35.0474 10.648 35.1554 10.336 35.3234 10C35.6594 9.352 36.5954 9.028 38.1314 9.028C39.5714 9.028 40.4714 9.304 40.8314 9.856C41.0954 10.24 41.2274 10.636 41.2274 11.044C41.3474 10.876 41.5154 10.672 41.7314 10.432C41.9714 10.192 42.4634 9.868 43.2074 9.46C43.9514 9.052 44.5994 8.848 45.1514 8.848C45.7274 8.848 46.2074 8.884 46.5914 8.956C46.9754 9.004 47.3954 9.1 47.8514 9.244ZM68.6147 16.264C68.6147 17.728 68.2427 18.82 67.4987 19.54C66.7787 20.236 65.9747 20.584 65.0867 20.584H56.5547C56.5547 21.256 56.9507 21.82 57.7427 22.276C58.5347 22.732 59.3267 22.96 60.1187 22.96C61.5107 22.96 62.6027 22.816 63.3947 22.528L63.7907 22.384C64.3667 22.12 64.8467 21.988 65.2307 21.988C65.9987 21.988 66.6587 22.528 67.2107 23.608C67.5227 24.256 67.6787 24.808 67.6787 25.264C67.6787 27.4 65.1227 28.468 60.0107 28.468C58.2347 28.468 56.6507 28.168 55.2587 27.568C53.8907 26.944 52.8227 26.128 52.0547 25.12C50.5427 23.176 49.7867 21.004 49.7867 18.604C49.7867 15.58 50.7587 13.168 52.7027 11.368C54.6707 9.544 57.1187 8.632 60.0467 8.632C63.3827 8.632 65.8307 9.808 67.3907 12.16C68.2067 13.408 68.6147 14.776 68.6147 16.264ZM61.0187 17.308C61.9307 17.308 62.3867 16.924 62.3867 16.156C62.3867 15.604 62.1707 15.16 61.7387 14.824C61.3307 14.488 60.7307 14.32 59.9387 14.32C59.1707 14.32 58.4027 14.644 57.6347 15.292C56.8667 15.916 56.4827 16.588 56.4827 17.308H61.0187ZM76.9034 18.532C76.9034 19.54 77.2394 20.332 77.9114 20.908C78.5834 21.46 79.2914 21.736 80.0354 21.736C80.8034 21.736 81.5114 21.52 82.1594 21.088C82.8314 20.632 83.3714 20.404 83.7794 20.404C84.4994 20.404 85.3754 21.04 86.4074 22.312C86.9594 23.008 87.2354 23.632 87.2354 24.184C87.2354 25.096 86.5754 25.948 85.2554 26.74C83.8874 27.7 82.2074 28.18 80.2154 28.18C77.9834 28.18 75.8354 27.376 73.7714 25.768C72.7874 25 71.9834 23.98 71.3594 22.708C70.7354 21.412 70.4234 19.996 70.4234 18.46C70.4234 16.9 70.7354 15.496 71.3594 14.248C71.9834 12.976 72.7874 11.956 73.7714 11.188C75.7634 9.604 77.8874 8.812 80.1434 8.812C81.0554 8.812 81.9434 8.944 82.8074 9.208C83.6714 9.448 84.3074 9.688 84.7154 9.928L85.2914 10.288C85.7234 10.576 86.0594 10.804 86.2994 10.972C86.9234 11.452 87.2354 12.004 87.2354 12.628C87.2354 13.228 86.9834 13.912 86.4794 14.68C85.6154 16 84.7874 16.66 83.9954 16.66C83.5394 16.66 82.8914 16.396 82.0514 15.868C81.6194 15.46 80.9954 15.256 80.1794 15.256C79.3874 15.256 78.6434 15.544 77.9474 16.12C77.2514 16.696 76.9034 17.5 76.9034 18.532ZM100.226 15.4L97.8855 15.256V20.224C97.8855 20.872 97.9815 21.34 98.1735 21.628C98.3895 21.916 98.7735 22.06 99.3255 22.06C99.9015 22.06 100.334 22.084 100.622 22.132C100.934 22.156 101.258 22.264 101.594 22.456C102.146 22.768 102.422 23.572 102.422 24.868C102.422 26.38 102.086 27.304 101.414 27.64C101.054 27.808 100.73 27.916 100.442 27.964C100.178 27.988 99.7815 28 99.2535 28C96.7575 28 94.8615 27.436 93.5655 26.308C92.2695 25.18 91.6215 23.272 91.6215 20.584V15.256C91.1655 15.328 90.6735 15.364 90.1455 15.364C89.6175 15.364 89.1735 15.16 88.8135 14.752C88.4775 14.344 88.3095 13.648 88.3095 12.664C88.3095 11.68 88.3695 10.972 88.4895 10.54C88.6095 10.084 88.7775 9.76 88.9935 9.568C89.3775 9.256 89.8575 9.1 90.4335 9.1L91.6215 9.244V5.536C91.6215 4.984 91.6335 4.576 91.6575 4.312C91.7055 4.048 91.8255 3.76 92.0175 3.448C92.3295 2.848 93.2535 2.548 94.7895 2.548C96.4215 2.548 97.3935 2.992 97.7055 3.88C97.8255 4.264 97.8855 4.876 97.8855 5.716V9.244C98.9415 9.148 99.7335 9.1 100.262 9.1C100.814 9.1 101.222 9.124 101.486 9.172C101.774 9.196 102.098 9.304 102.458 9.496C103.082 9.808 103.394 10.732 103.394 12.268C103.394 13.78 103.07 14.704 102.422 15.04C102.062 15.208 101.738 15.316 101.45 15.364C101.186 15.388 100.778 15.4 100.226 15.4ZM167.608 12.196C167.608 11.644 167.62 11.236 167.644 10.972C167.692 10.684 167.8 10.36 167.968 10C168.304 9.376 169.24 9.064 170.776 9.064C171.928 9.064 172.744 9.268 173.224 9.676C173.632 10.012 173.848 10.528 173.872 11.224C173.896 11.464 173.908 11.812 173.908 12.268V24.868C173.908 25.42 173.884 25.84 173.836 26.128C173.812 26.392 173.704 26.704 173.512 27.064C173.2 27.688 172.276 28 170.74 28C169.228 28 168.304 27.676 167.968 27.028C167.8 26.668 167.692 26.356 167.644 26.092C167.62 25.828 167.608 25.408 167.608 24.832V12.196ZM173.512 5.536C173.344 5.872 173.032 6.112 172.576 6.256C172.12 6.4 171.508 6.472 170.74 6.472C169.996 6.472 169.396 6.4 168.94 6.256C168.484 6.112 168.16 5.86 167.968 5.5C167.8 5.14 167.692 4.828 167.644 4.564C167.62 4.276 167.608 3.856 167.608 3.304C167.608 2.752 167.62 2.344 167.644 2.08C167.692 1.792 167.8 1.48 167.968 1.144C168.304 0.495998 169.24 0.171998 170.776 0.171998C172.288 0.171998 173.2 0.495998 173.512 1.144C173.704 1.504 173.812 1.828 173.836 2.116C173.884 2.38 173.908 2.788 173.908 3.34C173.908 3.892 173.884 4.312 173.836 4.6C173.812 4.864 173.704 5.176 173.512 5.536Z" fill="white"/>
<path d="M120.609 3.484L130.329 23.572C130.737 24.388 130.941 25 130.941 25.408C130.941 26.272 130.245 27.052 128.853 27.748C128.037 28.156 127.389 28.36 126.909 28.36C126.453 28.36 126.069 28.252 125.757 28.036C125.469 27.82 125.253 27.592 125.109 27.352C124.989 27.112 124.809 26.752 124.569 26.272L122.697 22.384H112.725L110.853 26.272C110.613 26.752 110.421 27.1 110.277 27.316C110.157 27.532 109.941 27.76 109.629 28C109.341 28.216 108.957 28.324 108.477 28.324C108.021 28.324 107.385 28.12 106.569 27.712C105.177 27.04 104.481 26.272 104.481 25.408C104.481 25 104.685 24.388 105.093 23.572L114.813 3.448C115.077 2.896 115.473 2.452 116.001 2.116C116.553 1.78 117.129 1.612 117.729 1.612C119.025 1.612 119.985 2.236 120.609 3.484ZM117.693 12.124L115.317 17.056H120.105L117.693 12.124ZM132.525 26.308C132.069 26.02 131.841 25.564 131.841 24.94C131.841 24.316 132.297 23.368 133.209 22.096C133.473 21.688 133.893 21.484 134.469 21.484C135.069 21.484 135.873 21.784 136.881 22.384C137.889 22.96 138.801 23.248 139.617 23.248C141.081 23.248 141.813 22.96 141.813 22.384C141.813 21.928 141.009 21.592 139.401 21.376C137.889 21.16 136.389 20.596 134.901 19.684C134.205 19.252 133.629 18.58 133.173 17.668C132.717 16.732 132.489 15.628 132.489 14.356C132.489 10.564 135.093 8.668 140.301 8.668C142.005 8.668 143.757 9.076 145.557 9.892C146.397 10.276 146.817 10.756 146.817 11.332C146.817 11.908 146.553 12.616 146.025 13.456C145.497 14.296 144.957 14.716 144.405 14.716C144.117 14.716 143.577 14.536 142.785 14.176C142.017 13.816 141.177 13.636 140.265 13.636C138.849 13.636 138.141 13.9 138.141 14.428C138.141 15.148 138.957 15.616 140.589 15.832C142.173 16 143.709 16.456 145.197 17.2C145.893 17.536 146.469 18.124 146.925 18.964C147.405 19.78 147.645 20.812 147.645 22.06C147.645 23.308 147.405 24.376 146.925 25.264C146.469 26.128 145.821 26.776 144.981 27.208C143.445 27.952 141.513 28.324 139.185 28.324C136.881 28.324 134.661 27.652 132.525 26.308ZM150.139 26.308C149.683 26.02 149.455 25.564 149.455 24.94C149.455 24.316 149.911 23.368 150.823 22.096C151.087 21.688 151.507 21.484 152.083 21.484C152.683 21.484 153.487 21.784 154.495 22.384C155.503 22.96 156.415 23.248 157.231 23.248C158.695 23.248 159.427 22.96 159.427 22.384C159.427 21.928 158.623 21.592 157.015 21.376C155.503 21.16 154.003 20.596 152.515 19.684C151.819 19.252 151.243 18.58 150.787 17.668C150.331 16.732 150.103 15.628 150.103 14.356C150.103 10.564 152.707 8.668 157.915 8.668C159.619 8.668 161.371 9.076 163.171 9.892C164.011 10.276 164.431 10.756 164.431 11.332C164.431 11.908 164.167 12.616 163.639 13.456C163.111 14.296 162.571 14.716 162.019 14.716C161.731 14.716 161.191 14.536 160.399 14.176C159.631 13.816 158.791 13.636 157.879 13.636C156.463 13.636 155.755 13.9 155.755 14.428C155.755 15.148 156.571 15.616 158.203 15.832C159.787 16 161.323 16.456 162.811 17.2C163.507 17.536 164.083 18.124 164.539 18.964C165.019 19.78 165.259 20.812 165.259 22.06C165.259 23.308 165.019 24.376 164.539 25.264C164.083 26.128 163.435 26.776 162.595 27.208C161.059 27.952 159.127 28.324 156.799 28.324C154.495 28.324 152.275 27.652 150.139 26.308ZM176.928 26.308C176.472 26.02 176.244 25.564 176.244 24.94C176.244 24.316 176.7 23.368 177.612 22.096C177.876 21.688 178.296 21.484 178.872 21.484C179.472 21.484 180.276 21.784 181.284 22.384C182.292 22.96 183.204 23.248 184.02 23.248C185.484 23.248 186.216 22.96 186.216 22.384C186.216 21.928 185.412 21.592 183.804 21.376C182.292 21.16 180.792 20.596 179.304 19.684C178.608 19.252 178.032 18.58 177.576 17.668C177.12 16.732 176.892 15.628 176.892 14.356C176.892 10.564 179.496 8.668 184.704 8.668C186.408 8.668 188.16 9.076 189.96 9.892C190.8 10.276 191.22 10.756 191.22 11.332C191.22 11.908 190.956 12.616 190.428 13.456C189.9 14.296 189.36 14.716 188.808 14.716C188.52 14.716 187.98 14.536 187.188 14.176C186.42 13.816 185.58 13.636 184.668 13.636C183.252 13.636 182.544 13.9 182.544 14.428C182.544 15.148 183.36 15.616 184.992 15.832C186.576 16 188.112 16.456 189.6 17.2C190.296 17.536 190.872 18.124 191.328 18.964C191.808 19.78 192.048 20.812 192.048 22.06C192.048 23.308 191.808 24.376 191.328 25.264C190.872 26.128 190.224 26.776 189.384 27.208C187.848 27.952 185.916 28.324 183.588 28.324C181.284 28.324 179.064 27.652 176.928 26.308ZM204.851 15.4L202.511 15.256V20.224C202.511 20.872 202.607 21.34 202.799 21.628C203.015 21.916 203.399 22.06 203.951 22.06C204.527 22.06 204.959 22.084 205.247 22.132C205.559 22.156 205.883 22.264 206.219 22.456C206.771 22.768 207.047 23.572 207.047 24.868C207.047 26.38 206.711 27.304 206.039 27.64C205.679 27.808 205.355 27.916 205.067 27.964C204.803 27.988 204.407 28 203.879 28C201.383 28 199.487 27.436 198.191 26.308C196.895 25.18 196.247 23.272 196.247 20.584V15.256C195.791 15.328 195.299 15.364 194.771 15.364C194.243 15.364 193.799 15.16 193.439 14.752C193.103 14.344 192.935 13.648 192.935 12.664C192.935 11.68 192.995 10.972 193.115 10.54C193.235 10.084 193.403 9.76 193.619 9.568C194.003 9.256 194.483 9.1 195.059 9.1L196.247 9.244V5.536C196.247 4.984 196.259 4.576 196.283 4.312C196.331 4.048 196.451 3.76 196.643 3.448C196.955 2.848 197.879 2.548 199.415 2.548C201.047 2.548 202.019 2.992 202.331 3.88C202.451 4.264 202.511 4.876 202.511 5.716V9.244C203.567 9.148 204.359 9.1 204.887 9.1C205.439 9.1 205.847 9.124 206.111 9.172C206.399 9.196 206.723 9.304 207.083 9.496C207.707 9.808 208.019 10.732 208.019 12.268C208.019 13.78 207.695 14.704 207.047 15.04C206.687 15.208 206.363 15.316 206.075 15.364C205.811 15.388 205.403 15.4 204.851 15.4Z" fill="#3A3F45"/>
</svg>
