<svg width="64" height="64" viewBox="0 0 64 64" fill="none" xmlns="http://www.w3.org/2000/svg">
<path fill-rule="evenodd" clip-rule="evenodd" d="M19.2 54.2372H20.8C21.696 54.2372 22.848 54.8116 23.36 55.5135L28.16 61.8943C30.272 64.7019 33.728 64.7019 35.84 61.8943L40.64 55.5135C41.248 54.7159 42.208 54.2372 43.2 54.2372H44.8C57.6 54.2372 64 47.8564 64 35.0947V19.1425C64 6.38085 57.6 0 44.8 0H19.2C6.4 0 0 6.38085 0 19.1425V35.0947C0 51.0468 6.4 54.2372 19.2 54.2372ZM18.5 34C20.9853 34 23 31.9853 23 29.5C23 27.0147 20.9853 25 18.5 25C16.0147 25 14 27.0147 14 29.5C14 31.9853 16.0147 34 18.5 34ZM37 29.5C37 31.9853 34.9853 34 32.5 34C30.0147 34 28 31.9853 28 29.5C28 27.0147 30.0147 25 32.5 25C34.9853 25 37 27.0147 37 29.5ZM46.5 34C48.9853 34 51 31.9853 51 29.5C51 27.0147 48.9853 25 46.5 25C44.0147 25 42 27.0147 42 29.5C42 31.9853 44.0147 34 46.5 34Z" fill="white"/>
</svg>
